<svg xmlns="http://www.w3.org/2000/svg" viewBox="0 0 280 560" fill="none">
  <!-- Phone frame - Dark mode -->
  <rect width="280" height="560" rx="32" fill="#1B365D"/>
  <rect x="4" y="4" width="272" height="552" rx="28" fill="#121820"/>
  <!-- Status bar -->
  <rect x="4" y="4" width="272" height="44" rx="28" fill="#0D1117"/>
  <text x="140" y="30" text-anchor="middle" fill="white" font-family="system-ui" font-size="13">9:41</text>
  <!-- Header -->
  <rect x="4" y="48" width="272" height="56" fill="#0D1117"/>
  <text x="140" y="82" text-anchor="middle" fill="#D4A853" font-family="Georgia, serif" font-size="18" font-weight="700">Tarixiy joylar</text>
  <!-- Grid of cards - dark mode -->
  <rect x="16" y="116" width="120" height="150" rx="12" fill="#1A2332"/>
  <rect x="16" y="116" width="120" height="80" rx="12" fill="#2A3342"/>
  <text x="26" y="216" fill="white" font-family="system-ui" font-size="11" font-weight="600">Registon</text>
  <text x="26" y="232" fill="#888" font-family="system-ui" font-size="9">Samarqand</text>
  <text x="26" y="252" fill="#D4A853" font-family="system-ui" font-size="9">Tarixiy joy</text>

  <rect x="144" y="116" width="120" height="150" rx="12" fill="#1A2332"/>
  <rect x="144" y="116" width="120" height="80" rx="12" fill="#2A3342"/>
  <text x="154" y="216" fill="white" font-family="system-ui" font-size="11" font-weight="600">Ark qal'asi</text>
  <text x="154" y="232" fill="#888" font-family="system-ui" font-size="9">Buxoro</text>
  <text x="154" y="252" fill="#D4A853" font-family="system-ui" font-size="9">Tarixiy joy</text>

  <rect x="16" y="278" width="120" height="150" rx="12" fill="#1A2332"/>
  <rect x="16" y="278" width="120" height="80" rx="12" fill="#2A3342"/>
  <text x="26" y="378" fill="white" font-family="system-ui" font-size="11" font-weight="600">Shahrisabz</text>
  <text x="26" y="394" fill="#888" font-family="system-ui" font-size="9">Qashqadaryo</text>
  <text x="26" y="414" fill="#D4A853" font-family="system-ui" font-size="9">Tarixiy joy</text>

  <rect x="144" y="278" width="120" height="150" rx="12" fill="#1A2332"/>
  <rect x="144" y="278" width="120" height="80" rx="12" fill="#2A3342"/>
  <text x="154" y="378" fill="white" font-family="system-ui" font-size="11" font-weight="600">Ichan-Qal'a</text>
  <text x="154" y="394" fill="#888" font-family="system-ui" font-size="9">Xiva</text>
  <text x="154" y="414" fill="#D4A853" font-family="system-ui" font-size="9">Tarixiy joy</text>

  <!-- Bottom nav -->
  <rect x="4" y="508" width="272" height="48" fill="#0D1117"/>
  <line x1="4" y1="508" x2="276" y2="508" stroke="#1A2332"/>
  <circle cx="70" cy="530" r="10" fill="none" stroke="#555"/>
  <circle cx="140" cy="530" r="10" fill="#D4A853" fill-opacity="0.2"/>
  <circle cx="210" cy="530" r="10" fill="none" stroke="#555"/>
</svg>
