<svg xmlns="http://www.w3.org/2000/svg" viewBox="0 0 280 560" fill="none">
  <!-- Phone frame -->
  <rect width="280" height="560" rx="32" fill="#1B365D"/>
  <rect x="4" y="4" width="272" height="552" rx="28" fill="#FFFFFF"/>
  <!-- Status bar -->
  <rect x="4" y="4" width="272" height="44" rx="28" fill="#1B365D"/>
  <text x="140" y="30" text-anchor="middle" fill="white" font-family="system-ui" font-size="13">9:41</text>
  <!-- Header -->
  <rect x="4" y="48" width="272" height="56" fill="#1B365D"/>
  <text x="140" y="82" text-anchor="middle" fill="#D4A853" font-family="Georgia, serif" font-size="18" font-weight="700">Muzeylar</text>
  <!-- Search bar -->
  <rect x="16" y="116" width="248" height="40" rx="10" fill="#F0F0F0"/>
  <text x="32" y="141" fill="#999" font-family="system-ui" font-size="14">Qidirish...</text>
  <!-- Museum cards -->
  <rect x="16" y="172" width="248" height="100" rx="12" fill="#FFF8F0"/>
  <rect x="16" y="172" width="100" height="100" rx="12" fill="#E8ECF2"/>
  <text x="128" y="200" fill="#1B365D" font-family="system-ui" font-size="13" font-weight="600">Amir Temur muzeyi</text>
  <text x="128" y="218" fill="#888" font-family="system-ui" font-size="11">Toshkent shahri</text>
  <circle cx="248" cy="200" r="12" fill="none" stroke="#D4A853" stroke-width="1.5"/>
  <path d="M244 200L248 196L252 200L248 204Z" fill="#D4A853"/>

  <rect x="16" y="284" width="248" height="100" rx="12" fill="#FFF8F0"/>
  <rect x="16" y="284" width="100" height="100" rx="12" fill="#E8ECF2"/>
  <text x="128" y="312" fill="#1B365D" font-family="system-ui" font-size="13" font-weight="600">Registon muzeyi</text>
  <text x="128" y="330" fill="#888" font-family="system-ui" font-size="11">Samarqand shahri</text>

  <rect x="16" y="396" width="248" height="100" rx="12" fill="#FFF8F0"/>
  <rect x="16" y="396" width="100" height="100" rx="12" fill="#E8ECF2"/>
  <text x="128" y="424" fill="#1B365D" font-family="system-ui" font-size="13" font-weight="600">Ichan-Qal'a muzeyi</text>
  <text x="128" y="442" fill="#888" font-family="system-ui" font-size="11">Xiva shahri</text>

  <!-- Bottom nav -->
  <rect x="4" y="508" width="272" height="48" rx="0" fill="white"/>
  <line x1="4" y1="508" x2="276" y2="508" stroke="#E0E0E0"/>
  <circle cx="70" cy="530" r="10" fill="#D4A853" fill-opacity="0.2"/>
  <circle cx="140" cy="530" r="10" fill="none" stroke="#CCC"/>
  <circle cx="210" cy="530" r="10" fill="none" stroke="#CCC"/>
</svg>
