<svg xmlns="http://www.w3.org/2000/svg" viewBox="0 0 1200 630" fill="none">
  <rect width="1200" height="630" fill="#1B365D"/>
  <!-- Islamic geometric pattern background -->
  <g opacity="0.08" stroke="#D4A853" stroke-width="1">
    <path d="M0 0L100 50L0 100M100 0L200 50L100 100M200 0L300 50L200 100M300 0L400 50L300 100M400 0L500 50L400 100M500 0L600 50L500 100M600 0L700 50L600 100M700 0L800 50L700 100M800 0L900 50L800 100M900 0L1000 50L900 100M1000 0L1100 50L1000 100M1100 0L1200 50L1100 100"/>
    <path d="M0 100L100 150L0 200M100 100L200 150L100 200M200 100L300 150L200 200M300 100L400 150L300 200M400 100L500 150L400 200M500 100L600 150L500 200M600 100L700 150L600 200M700 100L800 150L700 200M800 100L900 150L800 200M900 100L1000 150L900 200M1000 100L1100 150L1000 200M1100 100L1200 150L1100 200"/>
    <path d="M0 200L100 250L0 300M100 200L200 250L100 300M200 200L300 250L200 300M300 200L400 250L300 300M400 200L500 250L400 300M500 200L600 250L500 300M600 200L700 250L600 300M700 200L800 250L700 300M800 200L900 250L800 300M900 200L1000 250L900 300M1000 200L1100 250L1000 300M1100 200L1200 250L1100 300"/>
    <path d="M0 300L100 350L0 400M100 300L200 350L100 400M200 300L300 350L200 400M300 300L400 350L300 400M400 300L500 350L400 400M500 300L600 350L500 400M600 300L700 350L600 400M700 300L800 350L700 400M800 300L900 350L800 400M900 300L1000 350L900 400M1000 300L1100 350L1000 400M1100 300L1200 350L1100 400"/>
    <path d="M0 400L100 450L0 500M100 400L200 450L100 500M200 400L300 450L200 500M300 400L400 450L300 500M400 400L500 450L400 500M500 400L600 450L500 500M600 400L700 450L600 500M700 400L800 450L700 500M800 400L900 450L800 500M900 400L1000 450L900 500M1000 400L1100 450L1000 500M1100 400L1200 450L1100 500"/>
    <path d="M0 500L100 550L0 600M100 500L200 550L100 600M200 500L300 550L200 600M300 500L400 550L300 600M400 500L500 550L400 600M500 500L600 550L500 600M600 500L700 550L600 600M700 500L800 550L700 600M800 500L900 550L800 600M900 500L1000 550L900 600M1000 500L1100 550L1000 600M1100 500L1200 550L1100 600"/>
  </g>
  <!-- Gold accent line -->
  <rect x="0" y="610" width="1200" height="20" fill="#D4A853"/>
  <!-- Text content -->
  <text x="600" y="270" text-anchor="middle" fill="#D4A853" font-family="Georgia, serif" font-size="72" font-weight="700">O'zbekiston Muzeylari</text>
  <text x="600" y="340" text-anchor="middle" fill="white" font-family="system-ui, sans-serif" font-size="32" font-weight="400" opacity="0.9">281 muzey  |  101 tarixiy joy  |  3 til</text>
  <text x="600" y="400" text-anchor="middle" fill="white" font-family="system-ui, sans-serif" font-size="24" font-weight="300" opacity="0.6">Bepul ilova — iOS va Android</text>
  <!-- Museum icon -->
  <g transform="translate(555, 120)">
    <rect x="20" y="30" width="50" height="60" rx="2" fill="#D4A853" fill-opacity="0.3" stroke="#D4A853" stroke-width="2"/>
    <path d="M10 30L45 5L80 30" stroke="#D4A853" stroke-width="2.5" fill="#D4A853" fill-opacity="0.15"/>
    <rect x="32" y="45" width="12" height="20" rx="1" fill="#D4A853" fill-opacity="0.5"/>
    <rect x="50" y="45" width="8" height="12" rx="1" fill="#D4A853" fill-opacity="0.5"/>
  </g>
</svg>
